<?xml version="1.0" encoding="UTF-8" standalone="no"?>
<svg
   xmlns:dc="http://purl.org/dc/elements/1.1/"
   xmlns:cc="http://creativecommons.org/ns#"
   xmlns:rdf="http://www.w3.org/1999/02/22-rdf-syntax-ns#"
   xmlns:svg="http://www.w3.org/2000/svg"
   xmlns="http://www.w3.org/2000/svg"
   version="1.1"
   viewBox="0 0 169.08997 488.55"
   height="488.55002"
   width="169.08997"
   data-name="Layer 1"
   id="fe80fb2b-bcaf-407e-919b-306adc32f78b">
  <metadata
     id="metadata97">
    <rdf:RDF>
      <cc:Work
         rdf:about="">
        <dc:format>image/svg+xml</dc:format>
        <dc:type
           rdf:resource="http://purl.org/dc/dcmitype/StillImage" />
        <dc:title>profile</dc:title>
      </cc:Work>
    </rdf:RDF>
  </metadata>
  <defs
     id="defs95" />
  <title
     id="title10">profile</title>
  <line
     style="fill:none;stroke:#3f3d56;stroke-miterlimit:10"
     x1="0"
     id="line12"
     stroke-miterlimit="10"
     y2="488.05002"
     x2="166"
     y1="488.05002" />
  <path
     style="fill:#2f2e41"
     id="path54"
     d="m 100.82419,68.427832 c 0,0 -9.32419,-2.757 -11.32419,0.243 -2,3 2.72669,24.7477 2.72669,24.7477 l 20.54589,1.24859 -7.17022,-18.10653 z" />
  <path
     style="fill:#a0616a"
     id="path56"
     d="m 28.94417,247.01792 c 0,0 18.69466,41.04232 4.29762,39.753 -14.39704,-1.28932 -19.98395,-39.753 -19.98395,-39.753 z" />
  <path
     style="fill:#a0616a"
     id="path58"
     d="m 151.21128,242.7421 c 0,0 -8.20129,44.34751 5.45523,39.61078 13.65652,-4.73673 9.76437,-43.40874 9.76437,-43.40874 z" />
  <path
     style="fill:#a0616a"
     id="path60"
     d="m 96.84664,58.137302 c 0,0 -0.21488,20.6286 7.73573,21.703 7.95061,1.0744 -4.51251,12.03335 -4.51251,12.03335 L 85.8877,94.667112 65.474,93.162952 56.449,81.559362 c 0,0 15.90121,-7.52084 9.025,-30.9429 z" />
  <path
     style="opacity:0.1"
     id="path62"
     d="m 96.84664,58.137302 c 0,0 -0.21488,20.6286 7.73573,21.703 7.95061,1.0744 -4.51251,12.03335 -4.51251,12.03335 L 85.8877,94.667112 65.474,93.162952 56.449,81.559362 c 0,0 15.90121,-7.52084 9.025,-30.9429 z" />
  <path
     style="fill:#2f2e41"
     id="path64"
     d="m 133.37645,232.62088 c 0,0 10.09942,21.703 2.14881,89.82036 0,0 2.3637,24.0667 0.42977,28.5792 -1.93393,4.5125 -17.83515,65.75367 -17.83515,65.75367 0,0 -20.41371,4.5125 -23.20717,-9.025 0,0 2.79346,-19.33931 2.57857,-22.34765 -0.21489,-3.00834 4.51251,-35.88516 4.51251,-35.88516 l -9.66966,-63.60485 -7.306,57.37329 c 0,0 0,16.54586 -2.36369,20.19884 -2.36369,3.65298 0,77.14236 0,77.14236 0,0 6.66132,11.17383 -3.4381,11.38871 -10.09942,0.21488 -19.12443,-0.21488 -19.984,-7.306 -0.85957,-7.09112 -1.28929,-14.18216 -3.4381,-18.47979 -2.14881,-4.29763 -4.94227,-53.50543 -4.29762,-70.69593 0.64465,-17.1905 -14.18216,-105.50669 -9.45478,-114.74659 4.72738,-9.2399 91.32461,-8.16546 91.32461,-8.16546 z" />
  <circle
     style="fill:#a0616a"
     id="circle66"
     r="25.785749"
     cy="40.087292"
     cx="85.887703" />
  <path
     style="fill:#f2f2f2"
     id="path68"
     d="m 60.10195,81.989122 c 0,0 15.68633,11.60359 38.46374,2.3637 0,0 7.52084,-3.653 6.8762,-9.2399 -0.64464,-5.5869 15.68633,44.910178 15.68633,44.910178 l 16.54586,87.88643 -0.85953,35.88517 c 0,0 -7.306,-3.653 -30.08337,4.51251 -22.77737,8.16551 -59.95187,-9.2399 -59.95187,-9.2399 l 1.28929,-92.18405 1.28928,-53.720308 3.4381,-11.81847 c 0,0 1.71902,-3.22322 7.30597,0.64464 z" />
  <path
     style="fill:#2f2e41"
     id="path70"
     d="m 97.56324,67.564062 c 0,0 3.79591,-0.61662 7.44889,5.18517 3.65298,5.80179 12.24823,9.45477 12.24823,9.45477 0,0 20.84348,1.28929 23.85182,12.46312 3.00834,11.173828 10.52918,26.430388 14.18216,54.579828 3.65298,28.14944 10.95894,73.05963 12.03335,76.71261 1.07441,3.65298 -1.50417,14.8268 1.50417,18.2649 3.00834,3.4381 -21.27325,3.4381 -21.27325,3.4381 0,0 -2.14881,-17.62026 -3.653,-17.62026 -1.50419,0 -1.0744,11.81847 0.42977,20.41372 1.50417,8.59525 -10.95895,0 -10.95895,0 0,0 -9.66965,-39.32327 -18.90955,-74.77867 -9.2399,-35.4554 -14.61188,-55.0096 -12.89288,-62.96021 1.719,-7.95061 6.44644,-30.727998 3.00834,-32.876828 -3.4381,-2.14883 -7.0191,-12.27625 -7.0191,-12.27625 z" />
  <path
     style="fill:#2f2e41"
     id="path72"
     d="m 66.57551,67.545112 c 0,0 -5.614,3.05531 -19.7962,13.15473 -14.1822,10.09942 -23.85182,17.83514 -23.85182,17.83514 0,0 -5.58691,4.297618 -9.025,29.868488 -3.43809,25.57087 -11.17384,91.75429 -8.16549,100.13466 3.00835,8.38037 4.08275,13.32264 3.00834,18.26491 -1.07441,4.94227 22.56253,4.72739 22.99229,3.653 0.42976,-1.07439 -0.64464,-20.6286 0.42977,-21.05836 1.07441,-0.42976 6.87619,11.60359 7.9506,21.703 1.07441,10.09941 13.53752,18.05 16.331,18.05 2.79348,0 17.1905,-58.23282 17.40538,-97.98585 0.21488,-39.75303 -4.72739,-73.274498 -8.38037,-78.001888 -3.65298,-4.72739 1.1015,-25.61783 1.1015,-25.61783 z" />
  <path
     style="fill:#3f3d56"
     id="path74"
     d="m 104.36748,418.70804 c 0,0 1.71905,-4.72739 7.73573,-3.22322 6.01668,1.50417 10.09942,-3.86786 10.09942,-3.86786 0,0 3.22322,-0.42977 1.0744,3.653 -2.14882,4.08277 -3.86786,6.8762 -3.86786,6.8762 0,0 12.89288,29.43873 4.51251,36.52981 -8.38037,7.09108 -18.05,2.79346 -18.05,2.79346 0,0 -9.45477,-6.66132 -9.025,-24.28159 0,0 -0.42976,-5.58691 -5.58691,-14.61192 -5.15715,-9.02501 -9.025,-22.77741 -2.79346,-25.356 6.23154,-2.57859 7.83546,-2.67436 7.83546,-2.67436 0,0 -2.916,13.33721 4.61624,17.99776 z" />
  <path
     style="fill:#3f3d56"
     id="path76"
     d="m 64.39957,452.01463 c 0,0 -5.15715,-9.66966 3.4381,-10.74406 8.59525,-1.0744 17.83515,-1.71905 17.40538,2.79345 -0.42977,4.5125 -1.50417,11.38871 -1.50417,11.38871 l 1.50417,4.94227 c 0,0 0.42977,12.24823 1.93393,13.7524 1.50416,1.50417 9.66966,14.397 -7.73572,14.397 -17.40538,0 -22.56253,-1.93393 -21.05836,-6.01667 1.50417,-4.08274 1.93393,-24.28158 1.93393,-24.28158 z" />
  <path
     style="fill:#2f2e41"
     id="path78"
     d="m 77.72221,19.458682 c 0,0 12.03335,3.22322 18.26491,4.51251 6.23156,1.28929 5.58691,-2.3637 5.58691,-2.3637 0,0 8.16549,1.07441 7.73572,0.21488 -0.42977,-0.85953 3.4381,-5.372 -1.0744,-10.52918 -4.5125,-5.1571798 -3.22322,-9.0249998 -3.22322,-9.0249998 h -3.86786 l -1.07441,-1.50416998 h -6.01668 c 0,0 -4.5125,-1.71905 -16.331,0 C 65.90368,2.4830722 49.78762,2.9128322 48.49833,10.003922 c -1.28929,7.09109 -7.95061,15.90121 -5.58691,19.98395 2.3637,4.08274 15.90121,20.84348 17.1905,27.93456 1.28929,7.09108 7.30933,8.66659 7.09277,4.22585 -0.21656,-4.44074 -6.23325,-19.91218 -1.0761,-20.55682 5.15715,-0.64464 13.96731,-13.75241 11.60362,-22.13278 z" />
</svg>
